0
SECTION
2
HEADER
9
$INSUNITS
70
4
9
$ACADVER
1
AC1014
9
$HANDSEED
5
FFFF
0
ENDSEC
0
SECTION
2
TABLES
0
TABLE
2
VPORT
5
8
100
AcDbSymbolTable
0
ENDTAB
0
TABLE
2
LTYPE
5
5
100
AcDbSymbolTable
0
LTYPE
5
14
100
AcDbSymbolTableRecord
100
AcDbLinetypeTableRecord
2
BYBLOCK
70
0
0
LTYPE
5
15
100
AcDbSymbolTableRecord
100
AcDbLinetypeTableRecord
2
BYLAYER
70
0
0
ENDTAB
0
TABLE
2
LAYER
5
2
100
AcDbSymbolTable
70
2
0
LAYER
5
50
100
AcDbSymbolTableRecord
100
AcDbLayerTableRecord
2
0
70
0
6
CONTINUOUS
0
ENDTAB
0
TABLE
2
STYLE
5
3
100
AcDbSymbolTable
70
1
0
STYLE
5
11
100
AcDbSymbolTableRecord
100
AcDbTextStyleTableRecord
2
STANDARD
70
0
0
ENDTAB
0
TABLE
2
VIEW
5
6
100
AcDbSymbolTable
70
0
0
ENDTAB
0
TABLE
2
UCS
5
7
100
AcDbSymbolTable
70
0
0
ENDTAB
0
TABLE
2
APPID
5
9
100
AcDbSymbolTable
70
2
0
APPID
5
12
100
AcDbSymbolTableRecord
100
AcDbRegAppTableRecord
2
ACAD
70
0
0
ENDTAB
0
TABLE
2
DIMSTYLE
5
A
100
AcDbSymbolTable
70
1
0
ENDTAB
0
TABLE
2
BLOCK_RECORD
5
1
100
AcDbSymbolTable
70
1
0
BLOCK_RECORD
5
1F
100
AcDbSymbolTableRecord
100
AcDbBlockTableRecord
2
*MODEL_SPACE
0
BLOCK_RECORD
5
1B
100
AcDbSymbolTableRecord
100
AcDbBlockTableRecord
2
*PAPER_SPACE
0
ENDTAB
0
ENDSEC
0
SECTION
2
BLOCKS
0
BLOCK
5
20
100
AcDbEntity
100
AcDbBlockBegin
2
*MODEL_SPACE
0
ENDBLK
5
21
100
AcDbEntity
100
AcDbBlockEnd
0
BLOCK
5
1C
100
AcDbEntity
100
AcDbBlockBegin
2
*PAPER_SPACE
0
ENDBLK
5
1D
100
AcDbEntity
100
AcDbBlockEnd
0
ENDSEC
0
SECTION
2
ENTITIES
0
LWPOLYLINE
5
100
100
AcDbEntity
8
0
100
AcDbPolyline
90
2
70
1
43
0.0
10
101.5365
20
61.800994000000003
42
0.99999999999999989
10
101.66350000000003
20
61.800994000000024
42
0.99999999999999989
0
LWPOLYLINE
5
101
100
AcDbEntity
8
0
100
AcDbPolyline
90
2
70
1
43
0.0
10
28.590501619999998
20
61.800999079999997
42
0.99999999999999989
10
28.463501620000002
20
61.800999079999997
42
0.99999999999999989
0
LWPOLYLINE
5
102
100
AcDbEntity
8
0
100
AcDbPolyline
90
2
70
1
43
0.0
10
177.73649999999998
20
124.12700092000003
42
0.99999999999999989
10
177.60950000000003
20
124.12700092
42
0.99999999999999989
0
LWPOLYLINE
5
103
100
AcDbEntity
8
0
100
AcDbPolyline
90
2
70
1
43
0.0
10
25.590499999999999
20
61.800999079999997
42
0.99999999999999989
10
25.463500000000003
20
61.800999079999997
42
0.99999999999999989
0
LWPOLYLINE
5
104
100
AcDbEntity
8
0
100
AcDbPolyline
90
8
70
1
43
0.0
10
177.673
20
61.800999079999997
10
177.673
20
124.12700092
42
0.41421356237309509
10
174.67300091999999
20
127.127
10
28.52699908
20
127.127
42
0.41421356237309165
10
25.527000000000001
20
124.12700092
10
25.526999999999997
20
61.800999079999997
42
0.41421356237309331
10
28.52699908
20
58.800999999999995
10
174.67300092000002
20
58.800999999999988
42
0.41421356237309243
0
LWPOLYLINE
5
105
100
AcDbEntity
8
0
100
AcDbPolyline
90
2
70
1
43
0.0
10
174.73650092
20
58.800999999999995
42
0.99999999999999989
10
174.60950092000004
20
58.800999999999981
42
0.99999999999999989
0
LWPOLYLINE
5
106
100
AcDbEntity
8
0
100
AcDbPolyline
90
2
70
1
43
0.0
10
174.60950092000002
20
127.127
42
0.99999999999999989
10
174.73650092000003
20
127.12699999999997
42
-0.99999999999999989
0
LWPOLYLINE
5
107
100
AcDbEntity
8
0
100
AcDbPolyline
90
2
70
1
43
0.0
10
28.590499079999997
20
127.127
42
0.99999999999999989
10
28.463499080000002
20
127.127
42
0.99999999999999989
0
CIRCLE
5
108
100
AcDbEntity
8
0
100
AcDbCircle
10
174.67300091999999
20
124.12700092
30
0
40
1.575000000000006
210
0
220
0
230
1
0
LWPOLYLINE
5
109
100
AcDbEntity
8
0
100
AcDbPolyline
90
2
70
1
43
0.0
10
174.60950092000002
20
61.800999079999997
42
0.99999999999999989
10
174.73650092000003
20
61.800999079999947
42
-0.99999999999999989
0
LWPOLYLINE
5
110
100
AcDbEntity
8
0
100
AcDbPolyline
90
2
70
1
43
0.0
10
177.73649999999998
20
61.800999080000018
42
0.99999999999999989
10
177.60950000000003
20
61.800999079999997
42
0.99999999999999989
0
LWPOLYLINE
5
111
100
AcDbEntity
8
0
100
AcDbPolyline
90
2
70
1
43
0.0
10
174.73650092000003
20
127.12699999999997
42
0.99999999999999989
10
174.60950092000002
20
127.127
42
-0.99999999999999989
0
LWPOLYLINE
5
112
100
AcDbEntity
8
0
100
AcDbPolyline
90
2
70
1
43
0.0
10
25.590500000000006
20
124.12700092
42
0.99999999999999989
10
25.4635
20
124.12700092
42
0.99999999999999989
0
LWPOLYLINE
5
113
100
AcDbEntity
8
0
100
AcDbPolyline
90
2
70
1
43
0.0
10
174.60950092000004
20
124.12699837999996
42
0.99999999999999989
10
174.73650092
20
124.12699838
42
0.99999999999999989
0
CIRCLE
5
114
100
AcDbEntity
8
0
100
AcDbCircle
10
174.67300091999999
20
61.80099907999999
30
0
40
1.5750000000000051
210
0
220
0
230
1
0
LWPOLYLINE
5
115
100
AcDbEntity
8
0
100
AcDbPolyline
90
2
70
1
43
0.0
10
28.463501620000002
20
124.12699838
42
0.99999999999999989
10
28.590501619999998
20
124.12699838
42
0.99999999999999989
0
CIRCLE
5
116
100
AcDbEntity
8
0
100
AcDbCircle
10
28.52700162
20
61.800999079999997
30
0
40
1.575000000000002
210
0
220
0
230
1
0
LWPOLYLINE
5
117
100
AcDbEntity
8
0
100
AcDbPolyline
90
2
70
1
43
0.0
10
101.66350000000003
20
124.12700600000005
42
0.99999999999999989
10
101.5365
20
124.12700600000001
42
0.99999999999999989
0
LWPOLYLINE
5
118
100
AcDbEntity
8
0
100
AcDbPolyline
90
2
70
1
43
0.0
10
28.590501619999998
20
124.12699838
42
0.99999999999999989
10
28.463501620000002
20
124.12699838
42
0.99999999999999989
0
LWPOLYLINE
5
119
100
AcDbEntity
8
0
100
AcDbPolyline
90
2
70
1
43
0.0
10
174.73650092
20
124.12699838
42
0.99999999999999989
10
174.60950092000004
20
124.12699837999996
42
0.99999999999999989
0
LWPOLYLINE
5
120
100
AcDbEntity
8
0
100
AcDbPolyline
90
2
70
1
43
0.0
10
25.590500000000006
20
124.12700092
42
0.99999999999999989
10
25.4635
20
124.12700092
42
0.99999999999999989
0
CIRCLE
5
121
100
AcDbEntity
8
0
100
AcDbCircle
10
28.52700162
20
124.12699838
30
0
40
1.575000000000002
210
0
220
0
230
1
0
LWPOLYLINE
5
122
100
AcDbEntity
8
0
100
AcDbPolyline
90
2
70
1
43
0.0
10
25.590499999999999
20
61.800999079999997
42
0.99999999999999989
10
25.463500000000003
20
61.800999079999997
42
0.99999999999999989
0
LWPOLYLINE
5
123
100
AcDbEntity
8
0
100
AcDbPolyline
90
2
70
1
43
0.0
10
174.73650092000003
20
61.800999079999947
42
0.99999999999999989
10
174.60950092000002
20
61.800999080000032
42
-0.99999999999999989
0
LWPOLYLINE
5
124
100
AcDbEntity
8
0
100
AcDbPolyline
90
2
70
1
43
0.0
10
174.73650092
20
58.800999999999995
42
0.99999999999999989
10
174.60950092000004
20
58.800999999999981
42
0.99999999999999989
0
LWPOLYLINE
5
125
100
AcDbEntity
8
0
100
AcDbPolyline
90
2
70
1
43
0.0
10
177.73649999999998
20
61.800999080000018
42
0.99999999999999989
10
177.60950000000003
20
61.800999079999997
42
0.99999999999999989
0
LWPOLYLINE
5
126
100
AcDbEntity
8
0
100
AcDbPolyline
90
2
70
1
43
0.0
10
28.590499079999997
20
127.127
42
0.99999999999999989
10
28.463499080000002
20
127.127
42
0.99999999999999989
0
LWPOLYLINE
5
127
100
AcDbEntity
8
0
100
AcDbPolyline
90
2
70
1
43
0.0
10
28.463499080000002
20
58.800999999999995
42
0.99999999999999989
10
28.590499079999997
20
58.800999999999995
42
0.99999999999999989
0
LWPOLYLINE
5
128
100
AcDbEntity
8
0
100
AcDbPolyline
90
2
70
1
43
0.0
10
177.73649999999998
20
124.12700092000003
42
0.99999999999999989
10
177.60950000000003
20
124.12700092
42
0.99999999999999989
0
LWPOLYLINE
5
129
100
AcDbEntity
8
0
100
AcDbPolyline
90
2
70
1
43
0.0
10
28.463501620000002
20
61.800999079999997
42
0.99999999999999989
10
28.590501619999998
20
61.800999079999997
42
0.99999999999999989
0
LWPOLYLINE
5
130
100
AcDbEntity
8
0
100
AcDbPolyline
90
2
70
1
43
0.0
10
28.590499079999997
20
58.800999999999995
42
0.99999999999999989
10
28.463499080000002
20
58.800999999999995
42
0.99999999999999989
0
CIRCLE
5
131
100
AcDbEntity
8
0
100
AcDbCircle
10
28.52700162
20
124.12699838
30
0
40
1.575000000000002
210
0
220
0
230
1
0
ENDSEC
0
SECTION
2
OBJECTS
0
DICTIONARY
5
C
100
AcDbDictionary
3
ACAD_GROUP
350
D
3
ACAD_MLINESTYLE
350
17
0
DICTIONARY
5
D
100
AcDbDictionary
0
DICTIONARY
5
1A
330
C
100
AcDbDictionary
0
DICTIONARY
5
17
100
AcDbDictionary
0
ENDSEC
0
EOF
