G04*
G04 #@! TF.GenerationSoftware,Altium Limited,Altium Designer,24.5.2 (23)*
G04*
G04 Layer_Color=255*
%FSLAX25Y25*%
%MOIN*%
G70*
G04*
G04 #@! TF.SameCoordinates,392925F4-2C65-46F8-8396-EB9CC80DF0C9*
G04*
G04*
G04 #@! TF.FilePolarity,Positive*
G04*
G01*
G75*
%ADD19R,0.03740X0.05315*%
%ADD20R,0.04331X0.05315*%
%ADD21R,0.05315X0.04331*%
%ADD22R,0.05136X0.05733*%
%ADD23R,0.03937X0.05315*%
%ADD24R,0.03740X0.05315*%
%ADD25R,0.06102X0.06102*%
%ADD26R,0.03394X0.02978*%
%ADD27R,0.03347X0.02953*%
G04:AMPARAMS|DCode=29|XSize=17.72mil|YSize=11.81mil|CornerRadius=1.95mil|HoleSize=0mil|Usage=FLASHONLY|Rotation=0.000|XOffset=0mil|YOffset=0mil|HoleType=Round|Shape=RoundedRectangle|*
%AMROUNDEDRECTD29*
21,1,0.01772,0.00791,0,0,0.0*
21,1,0.01382,0.01181,0,0,0.0*
1,1,0.00390,0.00691,-0.00396*
1,1,0.00390,-0.00691,-0.00396*
1,1,0.00390,-0.00691,0.00396*
1,1,0.00390,0.00691,0.00396*
%
%ADD29ROUNDEDRECTD29*%
%ADD30R,0.04551X0.06922*%
%ADD31R,0.04528X0.04528*%
%ADD32R,0.03394X0.03377*%
%ADD33R,0.01181X0.02953*%
%ADD34R,0.02953X0.01181*%
%ADD36R,0.04921X0.03150*%
%ADD37R,0.05315X0.03937*%
G04:AMPARAMS|DCode=38|XSize=38.62mil|YSize=9.55mil|CornerRadius=4.77mil|HoleSize=0mil|Usage=FLASHONLY|Rotation=0.000|XOffset=0mil|YOffset=0mil|HoleType=Round|Shape=RoundedRectangle|*
%AMROUNDEDRECTD38*
21,1,0.03862,0.00000,0,0,0.0*
21,1,0.02908,0.00955,0,0,0.0*
1,1,0.00955,0.01454,0.00000*
1,1,0.00955,-0.01454,0.00000*
1,1,0.00955,-0.01454,0.00000*
1,1,0.00955,0.01454,0.00000*
%
%ADD38ROUNDEDRECTD38*%
%ADD39R,0.03862X0.00955*%
%ADD40R,0.04351X0.03961*%
G04:AMPARAMS|DCode=41|XSize=35.43mil|YSize=57.09mil|CornerRadius=1.95mil|HoleSize=0mil|Usage=FLASHONLY|Rotation=270.000|XOffset=0mil|YOffset=0mil|HoleType=Round|Shape=RoundedRectangle|*
%AMROUNDEDRECTD41*
21,1,0.03543,0.05319,0,0,270.0*
21,1,0.03154,0.05709,0,0,270.0*
1,1,0.00390,-0.02659,-0.01577*
1,1,0.00390,-0.02659,0.01577*
1,1,0.00390,0.02659,0.01577*
1,1,0.00390,0.02659,-0.01577*
%
%ADD41ROUNDEDRECTD41*%
G04:AMPARAMS|DCode=42|XSize=124.02mil|YSize=57.09mil|CornerRadius=2mil|HoleSize=0mil|Usage=FLASHONLY|Rotation=270.000|XOffset=0mil|YOffset=0mil|HoleType=Round|Shape=RoundedRectangle|*
%AMROUNDEDRECTD42*
21,1,0.12402,0.05309,0,0,270.0*
21,1,0.12002,0.05709,0,0,270.0*
1,1,0.00400,-0.02655,-0.06001*
1,1,0.00400,-0.02655,0.06001*
1,1,0.00400,0.02655,0.06001*
1,1,0.00400,0.02655,-0.06001*
%
%ADD42ROUNDEDRECTD42*%
%ADD43R,0.03150X0.03543*%
%ADD44R,0.02894X0.03394*%
%ADD45R,0.03150X0.03543*%
%ADD46R,0.03543X0.06102*%
%ADD47R,0.06102X0.05315*%
%ADD48R,0.04331X0.06496*%
%ADD49R,0.09843X0.05906*%
%ADD50R,0.27559X0.27559*%
%ADD51R,0.08583X0.07874*%
%ADD52R,0.02362X0.04528*%
%ADD53R,0.01181X0.04528*%
%ADD54R,0.05512X0.07874*%
%ADD55R,0.03771X0.04969*%
%ADD56R,0.13402X0.07489*%
%ADD57R,0.05906X0.03543*%
%ADD58R,0.04724X0.05709*%
%ADD59R,0.03961X0.04351*%
%ADD60R,0.03543X0.05906*%
%ADD61R,0.03543X0.03543*%
%ADD62R,0.08661X0.11024*%
%ADD63R,0.02953X0.03347*%
%ADD64R,0.03000X0.10700*%
%ADD65O,0.08071X0.02165*%
%ADD66O,0.02165X0.08071*%
G04:AMPARAMS|DCode=71|XSize=39.37mil|YSize=37.4mil|CornerRadius=2.06mil|HoleSize=0mil|Usage=FLASHONLY|Rotation=0.000|XOffset=0mil|YOffset=0mil|HoleType=Round|Shape=RoundedRectangle|*
%AMROUNDEDRECTD71*
21,1,0.03937,0.03329,0,0,0.0*
21,1,0.03526,0.03740,0,0,0.0*
1,1,0.00411,0.01763,-0.01664*
1,1,0.00411,-0.01763,-0.01664*
1,1,0.00411,-0.01763,0.01664*
1,1,0.00411,0.01763,0.01664*
%
%ADD71ROUNDEDRECTD71*%
G04:AMPARAMS|DCode=72|XSize=29.53mil|YSize=11.81mil|CornerRadius=1.95mil|HoleSize=0mil|Usage=FLASHONLY|Rotation=0.000|XOffset=0mil|YOffset=0mil|HoleType=Round|Shape=RoundedRectangle|*
%AMROUNDEDRECTD72*
21,1,0.02953,0.00791,0,0,0.0*
21,1,0.02563,0.01181,0,0,0.0*
1,1,0.00390,0.01282,-0.00396*
1,1,0.00390,-0.01282,-0.00396*
1,1,0.00390,-0.01282,0.00396*
1,1,0.00390,0.01282,0.00396*
%
%ADD72ROUNDEDRECTD72*%
%ADD78R,0.06496X0.09764*%
%ADD95C,0.02559*%
%ADD97C,0.01575*%
%ADD100R,0.04724X0.01870*%
%ADD101R,0.04724X0.01378*%
%ADD102R,0.06299X0.08465*%
%ADD103R,0.01378X0.03543*%
%ADD104C,0.01984*%
%ADD105R,0.10630X0.10630*%
%ADD106C,0.03098*%
%ADD114C,0.05307*%
%ADD115C,0.19685*%
%ADD116C,0.03902*%
D19*
X324649Y255900D02*
D03*
X330751D02*
D03*
D20*
X276596Y323200D02*
D03*
X263604D02*
D03*
X276596Y332000D02*
D03*
X263604D02*
D03*
X621996Y350000D02*
D03*
X609004D02*
D03*
X621996Y339333D02*
D03*
X609004D02*
D03*
X621996Y328667D02*
D03*
X609004D02*
D03*
X621996Y318000D02*
D03*
X609004D02*
D03*
D21*
X294700Y305004D02*
D03*
Y317996D02*
D03*
X286300Y305004D02*
D03*
Y317996D02*
D03*
D22*
X575428Y276435D02*
D03*
X581773D02*
D03*
X330872Y247800D02*
D03*
X324528D02*
D03*
D23*
X575057Y283000D02*
D03*
X582143D02*
D03*
X286457Y407200D02*
D03*
X293543D02*
D03*
D24*
X574747Y301600D02*
D03*
X580653D02*
D03*
X601047Y279500D02*
D03*
X606953D02*
D03*
D25*
X581243Y310900D02*
D03*
X574157D02*
D03*
D26*
X263000Y290638D02*
D03*
Y295762D02*
D03*
D27*
X268800Y290341D02*
D03*
Y295459D02*
D03*
D29*
X370677Y289459D02*
D03*
Y286900D02*
D03*
Y284341D02*
D03*
X363000D02*
D03*
Y286900D02*
D03*
Y289459D02*
D03*
Y273382D02*
D03*
Y275941D02*
D03*
Y278500D02*
D03*
X370677D02*
D03*
Y275941D02*
D03*
Y273382D02*
D03*
D30*
X379186Y273600D02*
D03*
X390415D02*
D03*
D31*
X354700Y289226D02*
D03*
Y279974D02*
D03*
D32*
X258600Y301029D02*
D03*
Y305771D02*
D03*
D33*
X348721Y272279D02*
D03*
X346753D02*
D03*
X344784D02*
D03*
X342816D02*
D03*
X340847D02*
D03*
X338879D02*
D03*
Y257121D02*
D03*
X340847D02*
D03*
X342816D02*
D03*
X344784D02*
D03*
X346753D02*
D03*
X348721D02*
D03*
D34*
X336221Y269621D02*
D03*
Y267653D02*
D03*
Y265684D02*
D03*
Y263716D02*
D03*
Y261747D02*
D03*
Y259779D02*
D03*
X351379D02*
D03*
Y261747D02*
D03*
Y263716D02*
D03*
Y265684D02*
D03*
Y267653D02*
D03*
Y269621D02*
D03*
D36*
X302600Y367801D02*
D03*
Y374100D02*
D03*
X316000Y360850D02*
D03*
Y367150D02*
D03*
X309300Y364401D02*
D03*
Y370700D02*
D03*
X322500Y357401D02*
D03*
Y363700D02*
D03*
D37*
X665300Y413900D02*
D03*
Y406813D02*
D03*
X589800Y303857D02*
D03*
Y310943D02*
D03*
X626500Y384957D02*
D03*
Y392043D02*
D03*
X473000Y408543D02*
D03*
Y401457D02*
D03*
X197600Y414143D02*
D03*
Y407057D02*
D03*
X579500Y414143D02*
D03*
Y407057D02*
D03*
X394600Y422643D02*
D03*
Y415557D02*
D03*
X214000Y352957D02*
D03*
Y360043D02*
D03*
X222000Y352957D02*
D03*
Y360043D02*
D03*
X230000Y352957D02*
D03*
Y360043D02*
D03*
D38*
X606770Y296937D02*
D03*
Y294969D02*
D03*
Y293000D02*
D03*
Y291032D02*
D03*
Y289063D02*
D03*
X595230D02*
D03*
Y291032D02*
D03*
Y293000D02*
D03*
Y294969D02*
D03*
D39*
Y296937D02*
D03*
D40*
X237342Y291200D02*
D03*
X242858D02*
D03*
X421758Y373500D02*
D03*
X416242D02*
D03*
X421758Y382000D02*
D03*
X416242D02*
D03*
X334758Y373300D02*
D03*
X329242D02*
D03*
X334758Y381800D02*
D03*
X329242D02*
D03*
D41*
X252600Y263700D02*
D03*
Y272755D02*
D03*
Y281810D02*
D03*
D42*
X228387Y272755D02*
D03*
D43*
X217000Y339937D02*
D03*
X220740Y332063D02*
D03*
X213260D02*
D03*
X230000Y332500D02*
D03*
X233740Y324626D02*
D03*
X226260D02*
D03*
X204000Y347937D02*
D03*
X207740Y340063D02*
D03*
X200260D02*
D03*
D44*
X370646Y245500D02*
D03*
X365800D02*
D03*
X370623Y252400D02*
D03*
X365777D02*
D03*
D45*
X580962Y269000D02*
D03*
X576238D02*
D03*
X614138Y290000D02*
D03*
X618862D02*
D03*
D46*
X607283Y263000D02*
D03*
X617717D02*
D03*
D47*
X616000Y279339D02*
D03*
Y271661D02*
D03*
D48*
X653110Y391000D02*
D03*
X641890D02*
D03*
D49*
X631835Y251445D02*
D03*
Y269555D02*
D03*
D50*
X659000Y260500D02*
D03*
D51*
X379864Y243700D02*
D03*
X420100D02*
D03*
X379864Y259172D02*
D03*
X420100D02*
D03*
D52*
X387383Y261436D02*
D03*
X412580D02*
D03*
X390533D02*
D03*
X409431D02*
D03*
D53*
X393092D02*
D03*
X395061D02*
D03*
X397029D02*
D03*
X398998D02*
D03*
X400966D02*
D03*
X402935D02*
D03*
X404903D02*
D03*
X406872D02*
D03*
D54*
X635839Y379000D02*
D03*
X653161D02*
D03*
D55*
X614637Y295500D02*
D03*
X620363D02*
D03*
D56*
X682500Y379002D02*
D03*
Y391998D02*
D03*
X665500Y379002D02*
D03*
Y391998D02*
D03*
D57*
X154854Y444642D02*
D03*
Y431650D02*
D03*
X174146D02*
D03*
Y444642D02*
D03*
X433354D02*
D03*
Y431650D02*
D03*
X452646D02*
D03*
Y444642D02*
D03*
X241354D02*
D03*
Y431650D02*
D03*
X260646D02*
D03*
Y444642D02*
D03*
X535354D02*
D03*
Y431650D02*
D03*
X554646D02*
D03*
Y444642D02*
D03*
X131157Y262094D02*
D03*
Y267094D02*
D03*
Y272094D02*
D03*
Y277094D02*
D03*
Y282094D02*
D03*
Y287094D02*
D03*
Y292094D02*
D03*
Y297094D02*
D03*
Y302094D02*
D03*
Y307094D02*
D03*
Y312094D02*
D03*
Y317094D02*
D03*
Y322094D02*
D03*
Y327094D02*
D03*
X200055D02*
D03*
Y322094D02*
D03*
Y317094D02*
D03*
Y312094D02*
D03*
Y307094D02*
D03*
Y302094D02*
D03*
Y297094D02*
D03*
Y292094D02*
D03*
Y287094D02*
D03*
Y282094D02*
D03*
Y277094D02*
D03*
Y272094D02*
D03*
Y267094D02*
D03*
Y262094D02*
D03*
X623222Y444642D02*
D03*
Y431650D02*
D03*
X642514D02*
D03*
Y444642D02*
D03*
X346854D02*
D03*
Y431650D02*
D03*
X366146D02*
D03*
Y444642D02*
D03*
D58*
X179563Y349000D02*
D03*
X187437D02*
D03*
X179563Y356500D02*
D03*
X187437D02*
D03*
X179563Y341500D02*
D03*
X187437D02*
D03*
D59*
X216000Y267258D02*
D03*
Y261742D02*
D03*
X209000Y267258D02*
D03*
Y261742D02*
D03*
D60*
X138106Y332016D02*
D03*
X143106D02*
D03*
X148106D02*
D03*
X153106D02*
D03*
X158106D02*
D03*
X163106D02*
D03*
X168106D02*
D03*
X173106D02*
D03*
X178106D02*
D03*
X183106D02*
D03*
X188106D02*
D03*
X193106D02*
D03*
D61*
X166000Y286976D02*
D03*
X171512D02*
D03*
X177024D02*
D03*
X166000Y298000D02*
D03*
X171512D02*
D03*
X177024D02*
D03*
X166000Y292488D02*
D03*
X177024D02*
D03*
X171512D02*
D03*
D62*
X213500Y305349D02*
D03*
Y286451D02*
D03*
D63*
X218459Y277100D02*
D03*
X213341D02*
D03*
D64*
X637894Y363300D02*
D03*
X647736D02*
D03*
X657579D02*
D03*
X667421D02*
D03*
X677264D02*
D03*
X687106D02*
D03*
X687106Y284700D02*
D03*
X677264D02*
D03*
X667421D02*
D03*
X657579D02*
D03*
X647736D02*
D03*
X637894D02*
D03*
D65*
X418205Y350449D02*
D03*
Y353598D02*
D03*
Y347299D02*
D03*
Y344150D02*
D03*
Y341000D02*
D03*
Y337850D02*
D03*
Y334701D02*
D03*
Y325252D02*
D03*
Y328402D02*
D03*
X468795Y325252D02*
D03*
Y328402D02*
D03*
Y331551D02*
D03*
Y334701D02*
D03*
Y337850D02*
D03*
Y341000D02*
D03*
Y344150D02*
D03*
Y347299D02*
D03*
Y350449D02*
D03*
Y353598D02*
D03*
Y356748D02*
D03*
X418205D02*
D03*
Y331551D02*
D03*
X331705Y325252D02*
D03*
Y328402D02*
D03*
Y331551D02*
D03*
Y334701D02*
D03*
Y337850D02*
D03*
Y341000D02*
D03*
Y344150D02*
D03*
Y347299D02*
D03*
Y350449D02*
D03*
Y353598D02*
D03*
Y356748D02*
D03*
X382295Y331551D02*
D03*
Y328402D02*
D03*
Y325252D02*
D03*
Y337850D02*
D03*
Y356748D02*
D03*
Y347299D02*
D03*
Y350449D02*
D03*
Y353598D02*
D03*
Y334701D02*
D03*
Y341000D02*
D03*
Y344150D02*
D03*
D66*
X430902Y315705D02*
D03*
X427752D02*
D03*
X434051D02*
D03*
X437201D02*
D03*
X440350D02*
D03*
X443500D02*
D03*
X446650D02*
D03*
X449799D02*
D03*
X452949D02*
D03*
X456098D02*
D03*
X459248D02*
D03*
Y366295D02*
D03*
X456098D02*
D03*
X452949D02*
D03*
X449799D02*
D03*
X446650D02*
D03*
X443500D02*
D03*
X440350D02*
D03*
X437201D02*
D03*
X434051D02*
D03*
X430902D02*
D03*
X427752D02*
D03*
X341252D02*
D03*
X344402D02*
D03*
X347551D02*
D03*
X350701D02*
D03*
X353850D02*
D03*
X357000D02*
D03*
X360150D02*
D03*
X363299D02*
D03*
X366449D02*
D03*
X369598D02*
D03*
X372748D02*
D03*
Y315705D02*
D03*
X369598D02*
D03*
X366449D02*
D03*
X363299D02*
D03*
X360150D02*
D03*
X357000D02*
D03*
X353850D02*
D03*
X350701D02*
D03*
X347551D02*
D03*
X344402D02*
D03*
X341252D02*
D03*
D71*
X366839Y288179D02*
D03*
Y274661D02*
D03*
D72*
X367213Y284341D02*
D03*
X366465Y278500D02*
D03*
D78*
X601000Y293000D02*
D03*
D95*
X388604Y257204D02*
D03*
X411360D02*
D03*
D97*
X168756Y298000D02*
D03*
X174268D02*
D03*
X168756Y292488D02*
D03*
X174268D02*
D03*
X168756Y286976D02*
D03*
X174268D02*
D03*
X166000Y295244D02*
D03*
X171512D02*
D03*
X177024D02*
D03*
X166000Y289732D02*
D03*
X177024D02*
D03*
X171512D02*
D03*
D100*
X277112Y300818D02*
D03*
X266088D02*
D03*
D101*
X277112Y304015D02*
D03*
Y305983D02*
D03*
X266088D02*
D03*
Y304015D02*
D03*
D102*
X266876Y312479D02*
D03*
X276324D02*
D03*
D103*
X269632Y300472D02*
D03*
X273569D02*
D03*
D104*
X271600Y304586D02*
D03*
D105*
X343800Y264700D02*
D03*
D106*
X109500Y300500D02*
D03*
X114500D02*
D03*
X109500Y295500D02*
D03*
X114500D02*
D03*
X109500Y290500D02*
D03*
X114500D02*
D03*
D114*
X631500Y414130D02*
D03*
X642825Y416922D02*
D03*
X651556Y424656D02*
D03*
X655692Y435563D02*
D03*
X654286Y447142D02*
D03*
X647660Y456741D02*
D03*
X637332Y462162D02*
D03*
X625668D02*
D03*
X615340Y456741D02*
D03*
X608714Y447142D02*
D03*
X607308Y435563D02*
D03*
X611444Y424656D02*
D03*
X620175Y416922D02*
D03*
X356500Y414130D02*
D03*
X367825Y416922D02*
D03*
X376556Y424656D02*
D03*
X380692Y435563D02*
D03*
X379286Y447142D02*
D03*
X372660Y456741D02*
D03*
X362332Y462162D02*
D03*
X350668D02*
D03*
X340340Y456741D02*
D03*
X333714Y447142D02*
D03*
X332308Y435563D02*
D03*
X336444Y424656D02*
D03*
X345175Y416922D02*
D03*
X545000Y414130D02*
D03*
X556325Y416922D02*
D03*
X565056Y424656D02*
D03*
X569192Y435563D02*
D03*
X567786Y447142D02*
D03*
X561160Y456741D02*
D03*
X550832Y462162D02*
D03*
X539168D02*
D03*
X528840Y456741D02*
D03*
X522214Y447142D02*
D03*
X520808Y435563D02*
D03*
X524944Y424656D02*
D03*
X533675Y416922D02*
D03*
X251000Y414130D02*
D03*
X262325Y416922D02*
D03*
X271056Y424656D02*
D03*
X275192Y435563D02*
D03*
X273786Y447142D02*
D03*
X267160Y456741D02*
D03*
X256832Y462162D02*
D03*
X245168D02*
D03*
X234840Y456741D02*
D03*
X228214Y447142D02*
D03*
X226808Y435563D02*
D03*
X230944Y424656D02*
D03*
X239675Y416922D02*
D03*
X443000Y414130D02*
D03*
X454325Y416922D02*
D03*
X463056Y424656D02*
D03*
X467192Y435563D02*
D03*
X465786Y447142D02*
D03*
X459160Y456741D02*
D03*
X448832Y462162D02*
D03*
X437168D02*
D03*
X426840Y456741D02*
D03*
X420214Y447142D02*
D03*
X418808Y435563D02*
D03*
X422944Y424656D02*
D03*
X431675Y416922D02*
D03*
X164500Y414130D02*
D03*
X175825Y416922D02*
D03*
X184556Y424656D02*
D03*
X188692Y435563D02*
D03*
X187286Y447142D02*
D03*
X180660Y456741D02*
D03*
X170332Y462162D02*
D03*
X158668D02*
D03*
X148340Y456741D02*
D03*
X141714Y447142D02*
D03*
X140308Y435563D02*
D03*
X144444Y424656D02*
D03*
X153175Y416922D02*
D03*
D115*
X687689Y243311D02*
D03*
Y488689D02*
D03*
X112311Y243311D02*
D03*
Y488689D02*
D03*
D116*
X116000Y305500D02*
D03*
X108000D02*
D03*
X112000Y285500D02*
D03*
M02*
