G04*
G04 #@! TF.GenerationSoftware,Altium Limited,Altium Designer,24.5.2 (23)*
G04*
G04 Layer_Color=0*
%FSLAX25Y25*%
%MOIN*%
G70*
G04*
G04 #@! TF.SameCoordinates,392925F4-2C65-46F8-8396-EB9CC80DF0C9*
G04*
G04*
G04 #@! TF.FilePolarity,Positive*
G04*
G01*
G75*
%ADD118C,0.00394*%
D118*
X270100Y321232D02*
Y325168D01*
X268131Y323200D02*
X272069D01*
X270100Y330031D02*
Y333968D01*
X268131Y332000D02*
X272069D01*
X292731Y311500D02*
X296669D01*
X294700Y309531D02*
Y313469D01*
X284331Y311500D02*
X288268D01*
X286300Y309531D02*
Y313469D01*
X578600Y274467D02*
Y278404D01*
X576631Y276435D02*
X580569D01*
X577700Y299632D02*
Y303569D01*
X575732Y301600D02*
X579669D01*
X261032Y293200D02*
X264968D01*
X263000Y291231D02*
Y295168D01*
X366839Y284931D02*
Y288868D01*
X364870Y286900D02*
X368807D01*
X366839Y273972D02*
Y277909D01*
X364870Y275941D02*
X368807D01*
X384800Y271632D02*
Y275569D01*
X382832Y273600D02*
X386769D01*
X352731Y284600D02*
X356668D01*
X354700Y282631D02*
Y286568D01*
X256631Y303400D02*
X260568D01*
X258600Y301431D02*
Y305368D01*
X327700Y245831D02*
Y249768D01*
X325731Y247800D02*
X329668D01*
X601000Y291032D02*
Y294969D01*
X599032Y293000D02*
X602969D01*
X238132Y291200D02*
X242069D01*
X240100Y289232D02*
Y293169D01*
X417032Y373500D02*
X420969D01*
X419000Y371532D02*
Y375469D01*
X417032Y382000D02*
X420969D01*
X419000Y380032D02*
Y383969D01*
X330032Y373300D02*
X333969D01*
X332000Y371332D02*
Y375269D01*
X330032Y381800D02*
X333969D01*
X332000Y379832D02*
Y383769D01*
X366254Y245500D02*
X370191D01*
X368223Y243531D02*
Y247468D01*
X366232Y252400D02*
X370169D01*
X368200Y250432D02*
Y254369D01*
X647878Y260500D02*
X651815D01*
X649846Y258532D02*
Y262469D01*
X398013Y246948D02*
X401950D01*
X399982Y244980D02*
Y248917D01*
X644500Y377032D02*
Y380969D01*
X642532Y379000D02*
X646469D01*
X604000Y277532D02*
Y281469D01*
X602032Y279500D02*
X605969D01*
X617500Y293532D02*
Y297469D01*
X615532Y295500D02*
X619469D01*
X615500Y348032D02*
Y351969D01*
X613532Y350000D02*
X617469D01*
X615500Y337365D02*
Y341302D01*
X613532Y339333D02*
X617469D01*
X680532Y385500D02*
X684469D01*
X682500Y383532D02*
Y387469D01*
X615500Y326698D02*
Y330635D01*
X613532Y328667D02*
X617469D01*
X663532Y385500D02*
X667469D01*
X665500Y383532D02*
Y387469D01*
X615500Y316032D02*
Y319969D01*
X613532Y318000D02*
X617469D01*
X216000Y262532D02*
Y266469D01*
X214032Y264500D02*
X217969D01*
X209000Y262532D02*
Y266469D01*
X207032Y264500D02*
X210969D01*
X213500Y293932D02*
Y297869D01*
X211531Y295900D02*
X215468D01*
M02*
