G04*
G04 #@! TF.GenerationSoftware,Altium Limited,Altium Designer,24.5.2 (23)*
G04*
G04 Layer_Color=32768*
%FSLAX25Y25*%
%MOIN*%
G70*
G04*
G04 #@! TF.SameCoordinates,392925F4-2C65-46F8-8396-EB9CC80DF0C9*
G04*
G04*
G04 #@! TF.FilePolarity,Positive*
G04*
G01*
G75*
%ADD11C,0.00787*%
%ADD16C,0.00600*%
%ADD118C,0.00394*%
%ADD121C,0.00197*%
G36*
X689606Y293500D02*
Y278350D01*
X635394D01*
Y293500D01*
X627650D01*
Y354500D01*
X635394D01*
Y369650D01*
X689606D01*
Y354500D01*
X697350D01*
Y293500D01*
X689606D01*
D02*
G37*
D11*
X261045Y319263D02*
Y327137D01*
Y319263D02*
X279155D01*
Y327137D01*
X261045D02*
X279155D01*
X261045Y328063D02*
Y335937D01*
Y328063D02*
X279155D01*
Y335937D01*
X261045D02*
X279155D01*
X290763Y320555D02*
X298637D01*
X290763Y302445D02*
Y320555D01*
Y302445D02*
X298637D01*
Y320555D01*
X282363D02*
X290237D01*
X282363Y302445D02*
Y320555D01*
Y302445D02*
X290237D01*
Y320555D01*
X585325Y272585D02*
Y280286D01*
X571875D02*
X585325D01*
X571875Y272585D02*
Y280286D01*
Y272585D02*
X585325D01*
X583212Y298254D02*
Y304946D01*
X572188D02*
X583212D01*
X572188Y298254D02*
Y304946D01*
Y298254D02*
X583212D01*
X260736Y297645D02*
X265264D01*
X260736Y288755D02*
Y297645D01*
Y288755D02*
X265264D01*
Y297645D01*
X361720Y282372D02*
Y291428D01*
Y282372D02*
X371957D01*
Y291428D01*
X361720D02*
X371957D01*
Y271413D02*
Y280469D01*
X361720D02*
X371957D01*
X361720Y271413D02*
Y280469D01*
Y271413D02*
X371957D01*
X393674Y269155D02*
Y278045D01*
X375926D02*
X393674D01*
X375926Y269155D02*
Y278045D01*
Y269155D02*
X393674D01*
X351649Y277316D02*
X357751D01*
Y291883D01*
X351649D02*
X357751D01*
X351649Y277316D02*
Y291883D01*
X256336Y307853D02*
X260864D01*
X256336Y298947D02*
Y307853D01*
Y298947D02*
X260864D01*
Y307853D01*
X320975Y243949D02*
Y251651D01*
Y243949D02*
X334425D01*
Y251651D01*
X320975D02*
X334425D01*
X591330Y285126D02*
Y300874D01*
Y285126D02*
X610670D01*
Y300874D01*
X591330D02*
X610670D01*
X234182Y294165D02*
X246018D01*
Y288235D02*
Y294165D01*
X234182Y288235D02*
X246018D01*
X234182D02*
Y294165D01*
X413082Y370535D02*
X424918D01*
X413082D02*
Y376465D01*
X424918D01*
Y370535D02*
Y376465D01*
X413082Y379035D02*
X424918D01*
X413082D02*
Y384965D01*
X424918D01*
Y379035D02*
Y384965D01*
X326082Y370335D02*
X337918D01*
X326082D02*
Y376265D01*
X337918D01*
Y370335D02*
Y376265D01*
X326082Y378835D02*
X337918D01*
X326082D02*
Y384765D01*
X337918D01*
Y378835D02*
Y384765D01*
X363959Y243236D02*
X372486D01*
X363959D02*
Y247764D01*
X372486D01*
Y243236D02*
Y247764D01*
X363937Y250136D02*
X372463D01*
X363937D02*
Y254664D01*
X372463D01*
Y250136D02*
Y254664D01*
X626520Y274673D02*
X673173D01*
X626520Y246327D02*
Y274673D01*
Y246327D02*
X673173D01*
Y274673D01*
X375179Y264094D02*
X424785D01*
Y231495D02*
Y264094D01*
X375179Y231495D02*
X424785D01*
X375179D02*
Y264094D01*
X656311Y373291D02*
Y384709D01*
X632689D02*
X656311D01*
X632689Y373291D02*
Y384709D01*
Y373291D02*
X656311D01*
X609512Y276154D02*
Y282846D01*
X598488D02*
X609512D01*
X598488Y276154D02*
Y282846D01*
Y276154D02*
X609512D01*
X622642Y292449D02*
Y298551D01*
X612358D02*
X622642D01*
X612358Y292449D02*
Y298551D01*
Y292449D02*
X622642D01*
X606445Y346063D02*
Y353937D01*
Y346063D02*
X624555D01*
Y353937D01*
X606445D02*
X624555D01*
X606445Y335396D02*
Y343270D01*
Y335396D02*
X624555D01*
Y343270D01*
X606445D02*
X624555D01*
X675217Y396136D02*
X689783D01*
X675217Y374864D02*
Y396136D01*
Y374864D02*
X689783D01*
Y396136D01*
X606445Y324730D02*
Y332604D01*
Y324730D02*
X624555D01*
Y332604D01*
X606445D02*
X624555D01*
X658217Y396136D02*
X672783D01*
X658217Y374864D02*
Y396136D01*
Y374864D02*
X672783D01*
Y396136D01*
X606445Y314063D02*
Y321937D01*
Y314063D02*
X624555D01*
Y321937D01*
X606445D02*
X624555D01*
X218965Y258582D02*
Y270418D01*
X213035Y258582D02*
X218965D01*
X213035D02*
Y270418D01*
X218965D01*
X211965Y258582D02*
Y270418D01*
X206035Y258582D02*
X211965D01*
X206035D02*
Y270418D01*
X211965D01*
X221374Y280546D02*
Y311254D01*
X205626Y280546D02*
X221374D01*
X205626D02*
Y311254D01*
X221374D01*
D16*
X689606Y278350D02*
Y293500D01*
X697350D01*
Y354500D01*
X689606D02*
X697350D01*
X689606D02*
Y369650D01*
X635394D02*
X689606D01*
X635394Y354500D02*
Y369650D01*
X627650Y354500D02*
X635394D01*
X627650Y293500D02*
Y354500D01*
Y293500D02*
X635394D01*
Y278350D02*
Y293500D01*
Y278350D02*
X689606D01*
D118*
X325731Y255900D02*
X329668D01*
X327700Y253931D02*
Y257869D01*
X576632Y283000D02*
X580569D01*
X578600Y281031D02*
Y284968D01*
X577700Y308931D02*
Y312869D01*
X575731Y310900D02*
X579669D01*
X268800Y291030D02*
Y294770D01*
X266930Y292900D02*
X270670D01*
X302600Y368982D02*
Y372919D01*
X300631Y370950D02*
X304569D01*
X665300Y408388D02*
Y412325D01*
X663332Y410357D02*
X667269D01*
X238525Y272755D02*
X242462D01*
X240494Y270787D02*
Y274724D01*
X215031Y336000D02*
X218969D01*
X217000Y334031D02*
Y337969D01*
X316000Y362032D02*
Y365968D01*
X314032Y364000D02*
X317969D01*
X309300Y365582D02*
Y369519D01*
X307331Y367550D02*
X311268D01*
X322500Y358582D02*
Y362519D01*
X320532Y360550D02*
X324468D01*
X576631Y269000D02*
X580569D01*
X578600Y267032D02*
Y270969D01*
X610531Y263000D02*
X614469D01*
X612500Y261031D02*
Y264969D01*
X589800Y305431D02*
Y309368D01*
X587831Y307400D02*
X591768D01*
X614532Y290000D02*
X618469D01*
X616500Y288031D02*
Y291969D01*
X616000Y273531D02*
Y277469D01*
X614031Y275500D02*
X617969D01*
X626500Y386531D02*
Y390469D01*
X624532Y388500D02*
X628469D01*
X647500Y389031D02*
Y392969D01*
X645531Y391000D02*
X649469D01*
X288032Y407200D02*
X291968D01*
X290000Y405232D02*
Y409168D01*
X473000Y403031D02*
Y406968D01*
X471032Y405000D02*
X474968D01*
X197600Y408632D02*
Y412569D01*
X195632Y410600D02*
X199568D01*
X579500Y408632D02*
Y412569D01*
X577531Y410600D02*
X581468D01*
X394600Y417132D02*
Y421068D01*
X392632Y419100D02*
X396568D01*
X212032Y356500D02*
X215969D01*
X214000Y354532D02*
Y358469D01*
X220032Y356500D02*
X223969D01*
X222000Y354532D02*
Y358469D01*
X228031Y328563D02*
X231969D01*
X230000Y326594D02*
Y330531D01*
X202031Y344000D02*
X205969D01*
X204000Y342031D02*
Y345969D01*
X228032Y356500D02*
X231969D01*
X230000Y354532D02*
Y358469D01*
X181531Y349000D02*
X185469D01*
X183500Y347032D02*
Y350969D01*
X181531Y356500D02*
X185469D01*
X183500Y354532D02*
Y358469D01*
X181531Y341500D02*
X185469D01*
X183500Y339532D02*
Y343469D01*
X215900Y275230D02*
Y278970D01*
X214030Y277100D02*
X217770D01*
X443500Y339031D02*
Y342969D01*
X441532Y341000D02*
X445469D01*
X355032D02*
X358969D01*
X357000Y339031D02*
Y342969D01*
D121*
X322385Y252554D02*
Y259246D01*
X333015Y252554D02*
Y259246D01*
X322385D02*
X333015D01*
X322385Y252554D02*
X333015D01*
X572104Y279260D02*
Y286740D01*
X585096Y279260D02*
Y286740D01*
X572104D02*
X585096D01*
X572104Y279260D02*
X585096D01*
X569039Y305782D02*
X586361D01*
X569039Y316018D02*
X586361D01*
Y305782D02*
Y316018D01*
X569039Y305782D02*
Y316018D01*
X266438Y288372D02*
X271162D01*
X266438Y297428D02*
X271162D01*
X266438Y288372D02*
Y297428D01*
X271162Y288372D02*
Y297428D01*
X333761Y274739D02*
X353839D01*
X333761Y254661D02*
Y274739D01*
Y254661D02*
X353839D01*
Y274739D01*
X299450Y365832D02*
X305750D01*
X299450Y376068D02*
X305750D01*
X299450Y365832D02*
Y376068D01*
X305750Y365832D02*
Y376068D01*
X661560Y416853D02*
X669040D01*
X661560Y403861D02*
X669040D01*
Y416853D01*
X661560Y403861D02*
Y416853D01*
X255848Y259172D02*
Y286338D01*
X225139Y259172D02*
Y286338D01*
Y259172D02*
X255848D01*
X225139Y286338D02*
X255848D01*
X223142Y329898D02*
Y342102D01*
X210858Y329898D02*
Y342102D01*
X223142D01*
X210858Y329898D02*
X223142D01*
X312850Y358882D02*
X319150D01*
X312850Y369118D02*
X319150D01*
X312850Y358882D02*
Y369118D01*
X319150Y358882D02*
Y369118D01*
X306150Y362432D02*
X312450D01*
X306150Y372669D02*
X312450D01*
X306150Y362432D02*
Y372669D01*
X312450Y362432D02*
Y372669D01*
X319350Y355432D02*
X325650D01*
X319350Y365669D02*
X325650D01*
X319350Y355432D02*
Y365669D01*
X325650Y355432D02*
Y365669D01*
X582931Y266638D02*
Y271362D01*
X574269Y266638D02*
Y271362D01*
Y266638D02*
X582931D01*
X574269Y271362D02*
X582931D01*
X605020Y259260D02*
Y266740D01*
X619980Y259260D02*
Y266740D01*
X605020D02*
X619980D01*
X605020Y259260D02*
X619980D01*
X586060Y300904D02*
X593540D01*
X586060Y313896D02*
X593540D01*
X586060Y300904D02*
Y313896D01*
X593540Y300904D02*
Y313896D01*
X612169Y287638D02*
Y292362D01*
X620831Y287638D02*
Y292362D01*
X612169D02*
X620831D01*
X612169Y287638D02*
X620831D01*
X610882Y283965D02*
X621118D01*
X610882Y267035D02*
X621118D01*
Y283965D01*
X610882Y267035D02*
Y283965D01*
X622760Y382004D02*
X630240D01*
X622760Y394996D02*
X630240D01*
X622760Y382004D02*
Y394996D01*
X630240Y382004D02*
Y394996D01*
X638642Y386669D02*
X656358D01*
X638642Y395331D02*
X656358D01*
Y386669D02*
Y395331D01*
X638642Y386669D02*
Y395331D01*
X283504Y403460D02*
Y410940D01*
X296496Y403460D02*
Y410940D01*
X283504D02*
X296496D01*
X283504Y403460D02*
X296496D01*
X469260Y411496D02*
X476740D01*
X469260Y398504D02*
X476740D01*
Y411496D01*
X469260Y398504D02*
Y411496D01*
X193860Y417096D02*
X201340D01*
X193860Y404104D02*
X201340D01*
Y417096D01*
X193860Y404104D02*
Y417096D01*
X575760D02*
X583240D01*
X575760Y404104D02*
X583240D01*
Y417096D01*
X575760Y404104D02*
Y417096D01*
X390860Y425596D02*
X398340D01*
X390860Y412604D02*
X398340D01*
Y425596D01*
X390860Y412604D02*
Y425596D01*
X150917Y427319D02*
Y448973D01*
X178083D01*
Y427319D02*
Y448973D01*
X150917Y427319D02*
X178083D01*
X429417D02*
Y448973D01*
X456583D01*
Y427319D02*
Y448973D01*
X429417Y427319D02*
X456583D01*
X237417D02*
Y448973D01*
X264583D01*
Y427319D02*
Y448973D01*
X237417Y427319D02*
X264583D01*
X210260Y350004D02*
Y362996D01*
X217740Y350004D02*
Y362996D01*
X210260Y350004D02*
X217740D01*
X210260Y362996D02*
X217740D01*
X218260Y350004D02*
Y362996D01*
X225740Y350004D02*
Y362996D01*
X218260Y350004D02*
X225740D01*
X218260Y362996D02*
X225740D01*
X236142Y322461D02*
Y334665D01*
X223858Y322461D02*
Y334665D01*
X236142D01*
X223858Y322461D02*
X236142D01*
X210142Y337898D02*
Y350102D01*
X197858Y337898D02*
Y350102D01*
X210142D01*
X197858Y337898D02*
X210142D01*
X531417Y427319D02*
Y448973D01*
X558583D01*
Y427319D02*
Y448973D01*
X531417Y427319D02*
X558583D01*
X226260Y350004D02*
Y362996D01*
X233740Y350004D02*
Y362996D01*
X226260Y350004D02*
X233740D01*
X226260Y362996D02*
X233740D01*
X175232Y344079D02*
Y353921D01*
X191768Y344079D02*
Y353921D01*
X175232D02*
X191768D01*
X175232Y344079D02*
X191768D01*
X175232Y351579D02*
Y361421D01*
X191768Y351579D02*
Y361421D01*
X175232D02*
X191768D01*
X175232Y351579D02*
X191768D01*
X175232Y336579D02*
Y346421D01*
X191768Y336579D02*
Y346421D01*
X175232D02*
X191768D01*
X175232Y336579D02*
X191768D01*
X127220Y335953D02*
X203992D01*
X127220Y231622D02*
Y335953D01*
Y231622D02*
X203992D01*
Y335953D01*
X211372Y274738D02*
X220428D01*
X211372Y279462D02*
X220428D01*
Y274738D02*
Y279462D01*
X211372Y274738D02*
Y279462D01*
X619285Y427319D02*
Y448973D01*
X646451D01*
Y427319D02*
Y448973D01*
X619285Y427319D02*
X646451D01*
X413283Y310783D02*
X473717D01*
X413283Y371217D02*
X473717D01*
X413283Y310783D02*
Y371217D01*
X473717Y310783D02*
Y371217D01*
X342917Y427319D02*
Y448973D01*
X370083D01*
Y427319D02*
Y448973D01*
X342917Y427319D02*
X370083D01*
X387217Y310783D02*
Y371217D01*
X326783Y310783D02*
Y371217D01*
X387217D01*
X326783Y310783D02*
X387217D01*
M02*
