M48
;Layer_Color=9474304
;FILE_FORMAT=2:5
INCH,LZ
;TYPE=PLATED
T01F00S00C0.00787
T02F00S00C0.01181
T03F00S00C0.03307
T04F00S00C0.12598
;TYPE=NON_PLATED
T05F00S00C0.02559
T06F00S00C0.03902
%
T01
X0166Y0289732
X0168756Y0286976
X0171512Y0289732
X0168756Y0292488
X0171512Y0295244
X0168756Y0298
X0174268
Y0292488
X0177024Y0295244
Y0289732
X0174268Y0286976
X0166Y0295244
T02
X0638Y02825
Y02855
Y02885
X06215Y0286
X06105Y0295
X06085Y03005
X05865Y0283
X0591Y02556
X04609Y02849
X04148Y02854
X0399024Y0269724
X0397Y02677
X03872Y02672
X03741Y02797
X03605Y02813
X03535Y02746
X03488Y02776
X03389Y02809
X03575Y02688
X03594Y02478
X036015Y03035
X0363299
X0366449
X0369598
X0372748
X0357
X035385
X04245Y03075
X04295
X02959Y02833
X0276Y02975
X02716Y03048
X02623Y02996
X01923Y02722
X01203Y02949
X01178Y02985
X01445Y036487
Y0367732
Y0370595
Y0373457
Y0376319
Y0379181
Y0382043
Y0384906
Y0387768
Y039063
X01384Y04415
X01869Y03935
X01592Y03598
X02135Y0348
X02242Y03489
X02355Y03555
X02663Y03431
X02723Y03397
X02599Y0317
X02479Y03133
X02088Y0323
Y0325862
X02545Y03885
X0254458Y0391542
X02545Y03945
X0274Y0413
X0278
X02815Y0409881
X0303Y04673
X03133Y03831
X0320024Y0380982
X0322692Y0376192
X03245Y03713
X03411Y03586
X0357Y03765
X0354Y03815
X03569Y03918
X03515Y03945
X0390785Y0392215
X0392809Y0390191
X0394833Y0388167
X0396857Y0386143
X0398881Y0384119
X0400905Y0382096
X0402928Y0380072
X0404952Y0378048
X0406976Y0376024
X0409Y0374
X0404Y0347299
Y034415
Y0341
Y033785
Y0334701
Y0331551
Y0328402
Y0325252
X0396
Y0328402
Y0331551
X04285Y03925
X0428734Y0398434
X0428458Y0402458
X042365Y04125
X04205
X0468Y0416
X04945Y04298
X05182Y03842
X05175Y0325
X05205Y0322
X052365
X0526799
X0529949
X0533098
X0536248
X0539398
X0542547
X0545697
X05699Y03324
X06027Y03135
X0622246Y031825
X06243Y03742
X06215Y03805
X0616Y0380154
X0613Y038
X061
X0607027Y0380111
X0604Y038
X06095Y0388902
Y0392051
Y0395201
Y039835
Y04015
X04964Y03139
X04938Y04702
T03
X0144444Y0424656
X0140308Y0435563
X0141714Y0447142
X014834Y0456741
X0153175Y0416922
X01645Y041413
X0175825Y0416922
X0184556Y0424656
X0188692Y0435563
X0187286Y0447142
X018066Y0456741
X0170332Y0462162
X0158668
X023484Y0456741
X0245168Y0462162
X0256832
X026716Y0456741
X0273786Y0447142
X0275192Y0435563
X0271056Y0424656
X0262325Y0416922
X0251Y041413
X0239675Y0416922
X0230944Y0424656
X0226808Y0435563
X0228214Y0447142
X0333714
X0332308Y0435563
X0336444Y0424656
X0345175Y0416922
X03565Y041413
X0367825Y0416922
X0376556Y0424656
X0380692Y0435563
X0379286Y0447142
X037266Y0456741
X0362332Y0462162
X0350668
X034034Y0456741
X042684
X0437168Y0462162
X0448832
X045916Y0456741
X0465786Y0447142
X0467192Y0435563
X0463056Y0424656
X0454325Y0416922
X0443Y041413
X0431675Y0416922
X0422944Y0424656
X0418808Y0435563
X0420214Y0447142
X0522214
X0520808Y0435563
X0524944Y0424656
X0533675Y0416922
X0545Y041413
X0556325Y0416922
X0565056Y0424656
X0569192Y0435563
X0567786Y0447142
X056116Y0456741
X0550832Y0462162
X0539168
X052884Y0456741
X061534
X0608714Y0447142
X0607308Y0435563
X0611444Y0424656
X0620175Y0416922
X06315Y041413
X0642825Y0416922
X0651556Y0424656
X0655692Y0435563
X0654286Y0447142
X064766Y0456741
X0637332Y0462162
X0625668
T04
X0687689Y0243311
X0112311
X0687689Y0488689
X0112311
T05
X0388604Y0257204
X041136
T06
X0112Y02855
X0116Y03055
X0108
M30
