G04*
G04 #@! TF.GenerationSoftware,Altium Limited,Altium Designer,24.5.2 (23)*
G04*
G04 Layer_Color=255*
%FSLAX25Y25*%
%MOIN*%
G70*
G04*
G04 #@! TF.SameCoordinates,392925F4-2C65-46F8-8396-EB9CC80DF0C9*
G04*
G04*
G04 #@! TF.FilePolarity,Positive*
G04*
G01*
G75*
%ADD95C,0.02559*%
%ADD97C,0.01575*%
%ADD114C,0.05307*%
%ADD115C,0.19685*%
%ADD116C,0.03902*%
D95*
X388604Y257204D02*
D03*
X411360D02*
D03*
D97*
X168756Y298000D02*
D03*
X174268D02*
D03*
X168756Y292488D02*
D03*
X174268D02*
D03*
X168756Y286976D02*
D03*
X174268D02*
D03*
X166000Y295244D02*
D03*
X171512D02*
D03*
X177024D02*
D03*
X166000Y289732D02*
D03*
X177024D02*
D03*
X171512D02*
D03*
D114*
X631500Y414130D02*
D03*
X642825Y416922D02*
D03*
X651556Y424656D02*
D03*
X655692Y435563D02*
D03*
X654286Y447142D02*
D03*
X647660Y456741D02*
D03*
X637332Y462162D02*
D03*
X625668D02*
D03*
X615340Y456741D02*
D03*
X608714Y447142D02*
D03*
X607308Y435563D02*
D03*
X611444Y424656D02*
D03*
X620175Y416922D02*
D03*
X356500Y414130D02*
D03*
X367825Y416922D02*
D03*
X376556Y424656D02*
D03*
X380692Y435563D02*
D03*
X379286Y447142D02*
D03*
X372660Y456741D02*
D03*
X362332Y462162D02*
D03*
X350668D02*
D03*
X340340Y456741D02*
D03*
X333714Y447142D02*
D03*
X332308Y435563D02*
D03*
X336444Y424656D02*
D03*
X345175Y416922D02*
D03*
X545000Y414130D02*
D03*
X556325Y416922D02*
D03*
X565056Y424656D02*
D03*
X569192Y435563D02*
D03*
X567786Y447142D02*
D03*
X561160Y456741D02*
D03*
X550832Y462162D02*
D03*
X539168D02*
D03*
X528840Y456741D02*
D03*
X522214Y447142D02*
D03*
X520808Y435563D02*
D03*
X524944Y424656D02*
D03*
X533675Y416922D02*
D03*
X251000Y414130D02*
D03*
X262325Y416922D02*
D03*
X271056Y424656D02*
D03*
X275192Y435563D02*
D03*
X273786Y447142D02*
D03*
X267160Y456741D02*
D03*
X256832Y462162D02*
D03*
X245168D02*
D03*
X234840Y456741D02*
D03*
X228214Y447142D02*
D03*
X226808Y435563D02*
D03*
X230944Y424656D02*
D03*
X239675Y416922D02*
D03*
X443000Y414130D02*
D03*
X454325Y416922D02*
D03*
X463056Y424656D02*
D03*
X467192Y435563D02*
D03*
X465786Y447142D02*
D03*
X459160Y456741D02*
D03*
X448832Y462162D02*
D03*
X437168D02*
D03*
X426840Y456741D02*
D03*
X420214Y447142D02*
D03*
X418808Y435563D02*
D03*
X422944Y424656D02*
D03*
X431675Y416922D02*
D03*
X164500Y414130D02*
D03*
X175825Y416922D02*
D03*
X184556Y424656D02*
D03*
X188692Y435563D02*
D03*
X187286Y447142D02*
D03*
X180660Y456741D02*
D03*
X170332Y462162D02*
D03*
X158668D02*
D03*
X148340Y456741D02*
D03*
X141714Y447142D02*
D03*
X140308Y435563D02*
D03*
X144444Y424656D02*
D03*
X153175Y416922D02*
D03*
D115*
X687689Y243311D02*
D03*
Y488689D02*
D03*
X112311Y243311D02*
D03*
Y488689D02*
D03*
D116*
X116000Y305500D02*
D03*
X108000D02*
D03*
X112000Y285500D02*
D03*
M02*
