G04*
G04 #@! TF.GenerationSoftware,Altium Limited,Altium Designer,24.5.2 (23)*
G04*
G04 Layer_Color=16711935*
%FSLAX25Y25*%
%MOIN*%
G70*
G04*
G04 #@! TF.SameCoordinates,392925F4-2C65-46F8-8396-EB9CC80DF0C9*
G04*
G04*
G04 #@! TF.FilePolarity,Positive*
G04*
G01*
G75*
%ADD13C,0.01000*%
%ADD118C,0.00394*%
D13*
X699500Y488689D02*
G03*
X687689Y500500I-11811J0D01*
G01*
Y231500D02*
G03*
X699500Y243311I0J11811D01*
G01*
X112311Y500500D02*
G03*
X100500Y488689I0J-11811D01*
G01*
Y243311D02*
G03*
X112311Y231500I11811J0D01*
G01*
X112311Y243311D02*
X687689D01*
X112311Y488689D02*
X687689D01*
Y243311D02*
Y488689D01*
X112311Y243311D02*
Y488689D01*
X112311Y231500D02*
X687689D01*
X112311Y500500D02*
X687689D01*
X699500Y243311D02*
Y488689D01*
X100500Y243311D02*
Y488689D01*
X400000Y243311D02*
Y488689D01*
D118*
X246994Y271107D02*
Y273730D01*
X246469Y274255D01*
X245419D01*
X244895Y273730D01*
Y271107D01*
X241746D02*
X243845D01*
Y272681D01*
X242796Y272156D01*
X242271D01*
X241746Y272681D01*
Y273730D01*
X242271Y274255D01*
X243320D01*
X243845Y273730D01*
M02*
